<mxfile host="app.diagrams.net" modified="2023-06-16T09:00:46.570Z" agent="Mozilla/5.0 (Windows NT 10.0; Win64; x64) AppleWebKit/537.36 (KHTML, like Gecko) Chrome/114.0.0.0 Safari/537.36" etag="mVzxdwzJo2lcSzqXCl19" version="21.4.0" type="github">
  <diagram id="C5RBs43oDa-KdzZeNtuy" name="Page-1">
    <mxGraphModel dx="1434" dy="796" grid="1" gridSize="10" guides="1" tooltips="1" connect="1" arrows="1" fold="1" page="1" pageScale="1" pageWidth="1600" pageHeight="900" background="none" math="0" shadow="0">
      <root>
        <mxCell id="WIyWlLk6GJQsqaUBKTNV-0" />
        <mxCell id="WIyWlLk6GJQsqaUBKTNV-1" parent="WIyWlLk6GJQsqaUBKTNV-0" />
        <mxCell id="2AEH6zildKWPFH1lrGJz-22" value="" style="endArrow=none;html=1;rounded=0;" parent="WIyWlLk6GJQsqaUBKTNV-1" edge="1">
          <mxGeometry width="50" height="50" relative="1" as="geometry">
            <mxPoint x="530" y="890" as="sourcePoint" />
            <mxPoint x="530" as="targetPoint" />
          </mxGeometry>
        </mxCell>
        <mxCell id="2AEH6zildKWPFH1lrGJz-23" value="" style="endArrow=none;html=1;rounded=0;" parent="WIyWlLk6GJQsqaUBKTNV-1" edge="1">
          <mxGeometry width="50" height="50" relative="1" as="geometry">
            <mxPoint x="820" y="890" as="sourcePoint" />
            <mxPoint x="820" as="targetPoint" />
          </mxGeometry>
        </mxCell>
        <mxCell id="gZ0aQkEOYFO3lREGFgBF-0" value="&amp;nbsp; &amp;nbsp; PRC&amp;nbsp; &amp;nbsp;&amp;nbsp;" style="text;strokeColor=none;fillColor=none;html=1;fontSize=40;fontStyle=1;verticalAlign=middle;align=center;labelBackgroundColor=#ffffff;labelBorderColor=default;" vertex="1" parent="WIyWlLk6GJQsqaUBKTNV-1">
          <mxGeometry x="67" y="10" width="100" height="40" as="geometry" />
        </mxCell>
        <mxCell id="gZ0aQkEOYFO3lREGFgBF-1" value="&amp;nbsp; &amp;nbsp; CI&amp;nbsp; &amp;nbsp;&amp;nbsp;" style="text;strokeColor=none;fillColor=none;html=1;fontSize=40;fontStyle=1;verticalAlign=middle;align=center;labelBackgroundColor=#ffffff;labelBorderColor=default;" vertex="1" parent="WIyWlLk6GJQsqaUBKTNV-1">
          <mxGeometry x="634" y="10" width="100" height="40" as="geometry" />
        </mxCell>
        <mxCell id="gZ0aQkEOYFO3lREGFgBF-2" value="&amp;nbsp; &amp;nbsp; &amp;nbsp;CRC&amp;nbsp; &amp;nbsp; &amp;nbsp;" style="text;strokeColor=none;fillColor=none;html=1;fontSize=40;fontStyle=1;verticalAlign=middle;align=center;labelBackgroundColor=#ffffff;labelBorderColor=default;" vertex="1" parent="WIyWlLk6GJQsqaUBKTNV-1">
          <mxGeometry x="940" y="10" width="100" height="40" as="geometry" />
        </mxCell>
        <mxCell id="gZ0aQkEOYFO3lREGFgBF-6" style="edgeStyle=orthogonalEdgeStyle;rounded=0;orthogonalLoop=1;jettySize=auto;html=1;exitX=0;exitY=0.5;exitDx=0;exitDy=0;dashed=1;dashPattern=8 8;" edge="1" parent="WIyWlLk6GJQsqaUBKTNV-1" source="gZ0aQkEOYFO3lREGFgBF-9">
          <mxGeometry relative="1" as="geometry">
            <mxPoint x="170" y="140" as="targetPoint" />
            <mxPoint x="700" y="139.57" as="sourcePoint" />
            <Array as="points" />
          </mxGeometry>
        </mxCell>
        <mxCell id="gZ0aQkEOYFO3lREGFgBF-5" value="임상시험 신청" style="rounded=0;whiteSpace=wrap;html=1;" vertex="1" parent="WIyWlLk6GJQsqaUBKTNV-1">
          <mxGeometry x="635" y="110" width="120" height="60" as="geometry" />
        </mxCell>
        <mxCell id="gZ0aQkEOYFO3lREGFgBF-14" value="반려 / 보완요청" style="edgeStyle=orthogonalEdgeStyle;rounded=0;orthogonalLoop=1;jettySize=auto;html=1;exitX=1;exitY=1;exitDx=0;exitDy=0;dashed=1;dashPattern=8 8;fontStyle=1;fontSize=14;entryX=0.5;entryY=1;entryDx=0;entryDy=0;" edge="1" parent="WIyWlLk6GJQsqaUBKTNV-1" source="gZ0aQkEOYFO3lREGFgBF-10" target="gZ0aQkEOYFO3lREGFgBF-5">
          <mxGeometry x="-0.6056" relative="1" as="geometry">
            <mxPoint x="630" y="160" as="targetPoint" />
            <Array as="points">
              <mxPoint x="147" y="200" />
              <mxPoint x="695" y="200" />
            </Array>
            <mxPoint as="offset" />
          </mxGeometry>
        </mxCell>
        <mxCell id="gZ0aQkEOYFO3lREGFgBF-16" value="통과" style="edgeStyle=orthogonalEdgeStyle;rounded=0;orthogonalLoop=1;jettySize=auto;html=1;" edge="1" parent="WIyWlLk6GJQsqaUBKTNV-1" source="gZ0aQkEOYFO3lREGFgBF-10" target="gZ0aQkEOYFO3lREGFgBF-15">
          <mxGeometry relative="1" as="geometry" />
        </mxCell>
        <mxCell id="gZ0aQkEOYFO3lREGFgBF-10" value="검토" style="rhombus;whiteSpace=wrap;html=1;rounded=0;" vertex="1" parent="WIyWlLk6GJQsqaUBKTNV-1">
          <mxGeometry x="87" y="100" width="80" height="80" as="geometry" />
        </mxCell>
        <mxCell id="gZ0aQkEOYFO3lREGFgBF-12" value="" style="endArrow=none;html=1;rounded=0;" edge="1" parent="WIyWlLk6GJQsqaUBKTNV-1">
          <mxGeometry width="50" height="50" relative="1" as="geometry">
            <mxPoint x="290" y="895" as="sourcePoint" />
            <mxPoint x="290" y="5" as="targetPoint" />
          </mxGeometry>
        </mxCell>
        <mxCell id="gZ0aQkEOYFO3lREGFgBF-13" value="&amp;nbsp; &amp;nbsp; KCSG&amp;nbsp; &amp;nbsp;&amp;nbsp;" style="text;strokeColor=none;fillColor=none;html=1;fontSize=40;fontStyle=1;verticalAlign=middle;align=center;labelBackgroundColor=#ffffff;labelBorderColor=default;" vertex="1" parent="WIyWlLk6GJQsqaUBKTNV-1">
          <mxGeometry x="360" y="10" width="100" height="40" as="geometry" />
        </mxCell>
        <mxCell id="gZ0aQkEOYFO3lREGFgBF-15" value="임상시험 승인" style="whiteSpace=wrap;html=1;rounded=0;" vertex="1" parent="WIyWlLk6GJQsqaUBKTNV-1">
          <mxGeometry x="67" y="270" width="120" height="60" as="geometry" />
        </mxCell>
        <mxCell id="gZ0aQkEOYFO3lREGFgBF-18" value="" style="edgeStyle=orthogonalEdgeStyle;rounded=0;orthogonalLoop=1;jettySize=auto;html=1;exitX=0;exitY=0.5;exitDx=0;exitDy=0;dashed=1;dashPattern=8 8;" edge="1" parent="WIyWlLk6GJQsqaUBKTNV-1" source="gZ0aQkEOYFO3lREGFgBF-5" target="gZ0aQkEOYFO3lREGFgBF-9">
          <mxGeometry relative="1" as="geometry">
            <mxPoint x="170" y="140" as="targetPoint" />
            <mxPoint x="635" y="140" as="sourcePoint" />
            <Array as="points">
              <mxPoint x="400" y="140" />
              <mxPoint x="400" y="141" />
            </Array>
          </mxGeometry>
        </mxCell>
        <mxCell id="gZ0aQkEOYFO3lREGFgBF-9" value="임상시험 등록" style="rounded=0;whiteSpace=wrap;html=1;" vertex="1" parent="WIyWlLk6GJQsqaUBKTNV-1">
          <mxGeometry x="350" y="110" width="120" height="60" as="geometry" />
        </mxCell>
      </root>
    </mxGraphModel>
  </diagram>
</mxfile>
